<?xml version="1.0" encoding="UTF-8"?>
<svg id="Layer_2" data-name="Layer 2" xmlns="http://www.w3.org/2000/svg" viewBox="0 0 512 512">
  <defs>
    <style>
      .cls-1 {
        fill: #fff;
        stroke-width: 0px;
      }
    </style>
  </defs>
  <g id="Layer_1-2" data-name="Layer 1">
    <g>
      <path class="cls-1" d="m0,0h512v512H0c0-170.67,0-341.33,0-512Zm486.21,2.02C324.78,163.44,163.2,325.01,2.04,486.16c7.82,7.84,16.12,16.17,24.66,24.74.92-.86,2.14-1.94,3.3-3.09,9.79-9.77,19.64-19.48,29.3-29.38,2.41-2.47,4.88-3.43,8.31-3.42,26.99.12,53.98.07,80.98.07,95.47,0,190.95.06,286.42-.14,6.17-.01,12.86-.87,18.39-3.37,15.2-6.87,21.77-19.45,21.75-36.1-.11-116.8-.06-233.6-.05-350.4,0-7.32-1.87-15.48.76-21.74,2.7-6.43,9.77-11.05,15.04-16.37,6.77-6.83,13.64-13.57,20.2-20.07-8.77-8.77-17.08-17.09-24.88-24.89ZM75.5,258.61c-.57-.43-1.14-.87-1.71-1.3V73.06h291.45v-36.15c-2.08,0-3.73,0-5.38,0-94.47,0-188.95-.01-283.42,0-24.35,0-39.52,15.25-39.53,39.68-.02,94.31,0,188.61,0,282.92,0,1.78,0,3.56,0,5.42h36.51c0-16.94-.13-33.43.14-49.91.04-2.49,1.28-5.57,3.03-7.33,28.03-28.29,56.23-56.4,84.4-84.55,1.14-1.14,2.37-2.17,4.12-3.76,8.29,8.43,16.31,16.59,24.19,24.62,8.58-8.82,16.89-17.35,25.5-26.2-7-6.93-14.47-14.29-21.9-21.69-17.53-17.46-38.93-17.54-56.4-.11-19.23,19.18-38.43,38.38-57.58,57.64-1.39,1.4-2.28,3.29-3.41,4.95Z"/>
      <path class="cls-1" d="m486.21,2.02c7.8,7.8,16.11,16.12,24.88,24.89-6.56,6.5-13.43,13.24-20.2,20.07-5.26,5.31-12.34,9.94-15.04,16.37-2.62,6.25-.75,14.42-.76,21.74-.01,116.8-.06,233.6.05,350.4.02,16.65-6.56,29.22-21.75,36.1-5.53,2.5-12.22,3.36-18.39,3.37-95.47.2-190.95.14-286.42.14-26.99,0-53.99.06-80.98-.07-3.44-.02-5.9.94-8.31,3.42-9.65,9.9-19.51,19.61-29.3,29.38-1.15,1.15-2.38,2.23-3.3,3.09-8.54-8.57-16.85-16.9-24.66-24.74C163.2,325.01,324.78,163.44,486.21,2.02Zm-243.34,295.43c-47.56,47.52-94.58,94.5-141.17,141.05h336.76c.13-1.07.32-1.87.32-2.67.02-16.33.12-32.65-.12-48.98-.03-1.98-1.48-4.34-2.97-5.84-22.18-22.35-44.47-44.59-66.74-66.84-1.05-1.04-2.17-2.01-3.74-3.46-8.92,9.04-17.61,18-26.48,26.76-2.82,2.79-5.85,5.55-9.25,7.54-15.47,9.06-32.67,6.5-46.08-6.81-13.82-13.72-27.48-27.61-40.54-40.75Zm195.73-196.83c-56.85,56.86-113.46,113.49-169.4,169.45,13.83,13.92,28.07,28.24,42.75,43,8.36-8.47,17.04-17.43,25.9-26.21,17.14-16.99,38.48-16.9,55.66.2,13.58,13.52,27.1,27.1,40.67,40.63,1.2,1.19,2.51,2.26,4.43,3.97V100.61Z"/>
      <path class="cls-1" d="m75.5,258.61c1.12-1.66,2.02-3.55,3.41-4.95,19.15-19.25,38.35-38.46,57.58-57.64,17.47-17.43,38.87-17.35,56.4.11,7.43,7.4,14.9,14.76,21.9,21.69-8.61,8.85-16.92,17.38-25.5,26.2-7.89-8.03-15.91-16.19-24.19-24.62-1.75,1.59-2.98,2.62-4.12,3.76-28.17,28.15-56.37,56.26-84.4,84.55-1.74,1.76-2.99,4.84-3.03,7.33-.26,16.48-.14,32.97-.14,49.91h-36.51c0-1.86,0-3.64,0-5.42,0-94.31-.01-188.61,0-282.92,0-24.43,15.18-39.68,39.53-39.68,94.47-.02,188.95,0,283.42,0,1.65,0,3.3,0,5.38,0v36.15H73.79v184.25c.57.43,1.14.87,1.71,1.3Z"/>
      <path class="cls-1" d="m242.87,297.44c13.06,13.14,26.72,27.03,40.54,40.75,13.41,13.31,30.62,15.88,46.08,6.81,3.4-1.99,6.43-4.75,9.25-7.54,8.87-8.77,17.56-17.72,26.48-26.76,1.57,1.45,2.69,2.42,3.74,3.46,22.27,22.26,44.57,44.49,66.74,66.84,1.49,1.5,2.94,3.86,2.97,5.84.24,16.32.13,32.65.12,48.98,0,.8-.18,1.59-.32,2.67H101.71c46.59-46.55,93.61-93.53,141.17-141.05Z"/>
      <path class="cls-1" d="m438.6,100.61v231.04c-1.92-1.71-3.24-2.78-4.43-3.97-13.56-13.54-27.08-27.12-40.67-40.63-17.18-17.09-38.52-17.19-55.66-.2-8.86,8.78-17.54,17.74-25.9,26.21-14.68-14.76-28.91-29.08-42.75-43,55.95-55.96,112.56-112.59,169.4-169.45Z"/>
    </g>
  </g>
</svg>